<svg width="289" height="49" viewBox="0 0 289 49" fill="none" xmlns="http://www.w3.org/2000/svg">
<path d="M0.664 48.488V12.512H9.232V15.344C10.224 14.304 11.376 13.488 12.688 12.896C14.016 12.304 15.432 12.008 16.936 12.008C18.984 12.008 20.92 12.52 22.744 13.544C24.568 14.552 26.04 16.032 27.16 17.984C28.296 19.92 28.864 22.296 28.864 25.112C28.864 28.072 28.312 30.552 27.208 32.552C26.104 34.552 24.648 36.064 22.84 37.088C21.032 38.096 19.064 38.6 16.936 38.6C15.432 38.6 14.016 38.288 12.688 37.664C11.376 37.04 10.224 36.176 9.232 35.072V48.488H0.664ZM9.232 25.928C9.232 27.064 9.488 28.032 10 28.832C10.528 29.632 11.2 30.248 12.016 30.68C12.848 31.096 13.704 31.304 14.584 31.304C16.008 31.304 17.272 30.808 18.376 29.816C19.48 28.824 20.032 27.256 20.032 25.112C20.032 22.968 19.48 21.424 18.376 20.48C17.288 19.52 16.024 19.04 14.584 19.04C13.72 19.04 12.872 19.248 12.04 19.664C11.224 20.064 10.552 20.656 10.024 21.44C9.496 22.208 9.232 23.16 9.232 24.296V25.64V25.928Z" fill="#6495ED"/>
<path d="M41.5049 38.552C38.7369 38.552 36.4489 37.904 34.6409 36.608C32.8329 35.296 31.9289 33.44 31.9289 31.04C31.9289 29.2 32.4489 27.704 33.4889 26.552C34.5289 25.4 35.8809 24.528 37.5449 23.936C39.2089 23.344 40.9689 22.96 42.8249 22.784C45.5129 22.528 47.3449 22.304 48.3209 22.112C49.3129 21.904 49.8089 21.552 49.8089 21.056V21.008C49.8089 20.24 49.4009 19.616 48.5849 19.136C47.7849 18.656 46.6809 18.416 45.2729 18.416C42.2649 18.416 40.7609 19.496 40.7609 21.656H32.3129C32.3129 19.56 32.8889 17.8 34.0409 16.376C35.2089 14.936 36.7769 13.848 38.7449 13.112C40.7129 12.376 42.9129 12.008 45.3449 12.008C47.6329 12.008 49.7689 12.352 51.7529 13.04C53.7369 13.728 55.3369 14.776 56.5529 16.184C57.7849 17.592 58.4009 19.384 58.4009 21.56V32.024C58.4009 32.712 58.4169 33.376 58.4489 34.016C58.4809 34.64 58.5689 35.208 58.7129 35.72C58.8889 36.296 59.1049 36.784 59.3609 37.184C59.6329 37.584 59.8489 37.856 60.0089 38H51.6329C51.5049 37.872 51.3129 37.624 51.0569 37.256C50.8009 36.888 50.5929 36.464 50.4329 35.984C50.3529 35.776 50.2889 35.568 50.2409 35.36C49.2649 36.384 48.0009 37.176 46.4489 37.736C44.9129 38.28 43.2649 38.552 41.5049 38.552ZM43.9529 32.336C44.8809 32.336 45.7769 32.168 46.6409 31.832C47.5049 31.48 48.2329 30.92 48.8249 30.152C49.4329 29.384 49.7929 28.36 49.9049 27.08C49.0729 27.288 48.1929 27.464 47.2649 27.608C46.3529 27.752 45.4569 27.864 44.5769 27.944C43.2169 28.088 42.2009 28.32 41.5289 28.64C40.8569 28.96 40.5209 29.488 40.5209 30.224C40.5209 31.632 41.6649 32.336 43.9529 32.336Z" fill="#FF7256"/>
<path d="M67.1268 8.936C65.8308 8.936 64.7028 8.6 63.7428 7.928C62.7828 7.256 62.3027 6.304 62.3027 5.072C62.3027 3.824 62.7828 2.872 63.7428 2.216C64.7028 1.544 65.8308 1.208 67.1268 1.208C68.4068 1.208 69.5268 1.544 70.4868 2.216C71.4628 2.872 71.9508 3.824 71.9508 5.072C71.9508 6.32 71.4628 7.28 70.4868 7.952C69.5268 8.608 68.4068 8.936 67.1268 8.936ZM62.9028 38V12.512H71.3748V38H62.9028Z" fill="#00C5CD"/>
<path d="M76.1796 38V12.512H84.7236V16.472C85.6836 15.064 86.9316 13.968 88.4676 13.184C90.0036 12.4 91.6996 12.008 93.5556 12.008C95.6836 12.008 97.4036 12.44 98.7156 13.304C100.044 14.168 101.012 15.368 101.62 16.904C102.244 18.44 102.556 20.208 102.556 22.208V38H94.0116V24.704C94.0116 23.744 93.8996 22.848 93.6756 22.016C93.4676 21.168 93.0516 20.488 92.4276 19.976C91.8036 19.448 90.8756 19.184 89.6436 19.184C88.0116 19.184 86.7796 19.712 85.9476 20.768C85.1316 21.808 84.7236 23.2 84.7236 24.944V38H76.1796Z" fill="#EED8AE"/>
<path d="M120.977 38.576C119.937 38.576 118.849 38.488 117.713 38.312C116.593 38.152 115.545 37.816 114.569 37.304C113.593 36.776 112.793 36.008 112.169 35C111.561 33.976 111.257 32.616 111.257 30.92V18.992H105.473V12.512H106.361C107.481 12.512 108.361 12.464 109.001 12.368C109.657 12.272 110.145 12.032 110.465 11.648C110.801 11.264 111.017 10.672 111.113 9.872C111.209 9.056 111.257 7.928 111.257 6.488V4.136H119.849V12.512H127.049V18.992H119.849V28.616C119.849 29.64 119.969 30.488 120.209 31.16C120.449 31.816 121.073 32.144 122.081 32.144C122.641 32.144 123.169 32.088 123.665 31.976C124.161 31.864 124.529 31.76 124.769 31.664V37.952C124.417 38.096 123.913 38.232 123.257 38.36C122.617 38.504 121.857 38.576 120.977 38.576Z" fill="#90EE90"/>
<path d="M142.177 38.6C140.673 38.6 139.201 38.424 137.761 38.072C136.321 37.72 135.017 37.192 133.849 36.488C132.681 35.768 131.753 34.872 131.065 33.8C130.377 32.728 130.033 31.48 130.033 30.056V29.72H138.529V30.008C138.529 30.808 138.873 31.384 139.561 31.736C140.265 32.088 141.217 32.264 142.417 32.264C142.961 32.264 143.513 32.208 144.073 32.096C144.649 31.968 145.129 31.768 145.513 31.496C145.913 31.224 146.113 30.864 146.113 30.416C146.113 29.728 145.697 29.24 144.865 28.952C144.033 28.664 142.649 28.36 140.713 28.04C139.593 27.864 138.425 27.6 137.209 27.248C136.009 26.896 134.889 26.424 133.849 25.832C132.809 25.24 131.969 24.488 131.329 23.576C130.689 22.648 130.369 21.528 130.369 20.216C130.369 18.408 130.913 16.896 132.001 15.68C133.089 14.464 134.529 13.552 136.321 12.944C138.129 12.32 140.113 12.008 142.273 12.008C144.305 12.008 146.217 12.352 148.009 13.04C149.801 13.728 151.249 14.712 152.353 15.992C153.473 17.272 154.033 18.792 154.033 20.552V20.84H145.633V20.576C145.633 19.76 145.265 19.176 144.529 18.824C143.793 18.456 143.025 18.272 142.225 18.272C141.761 18.272 141.257 18.328 140.713 18.44C140.169 18.536 139.705 18.712 139.321 18.968C138.937 19.224 138.745 19.584 138.745 20.048C138.745 20.688 139.233 21.168 140.209 21.488C141.185 21.808 142.433 22.088 143.953 22.328C144.945 22.488 146.033 22.72 147.217 23.024C148.417 23.312 149.561 23.744 150.649 24.32C151.753 24.88 152.649 25.632 153.337 26.576C154.041 27.52 154.393 28.72 154.393 30.176C154.393 31.712 154.033 33.016 153.313 34.088C152.609 35.16 151.665 36.032 150.481 36.704C149.297 37.36 147.977 37.84 146.521 38.144C145.081 38.448 143.633 38.6 142.177 38.6Z" fill="#F0F8FF"/>
<path d="M181.364 38.6C179.86 38.6 178.388 38.424 176.948 38.072C175.508 37.72 174.204 37.192 173.036 36.488C171.868 35.768 170.94 34.872 170.252 33.8C169.564 32.728 169.22 31.48 169.22 30.056V29.72H177.716V30.008C177.716 30.808 178.06 31.384 178.748 31.736C179.452 32.088 180.404 32.264 181.604 32.264C182.148 32.264 182.7 32.208 183.26 32.096C183.836 31.968 184.316 31.768 184.7 31.496C185.1 31.224 185.3 30.864 185.3 30.416C185.3 29.728 184.884 29.24 184.052 28.952C183.22 28.664 181.836 28.36 179.9 28.04C178.78 27.864 177.612 27.6 176.396 27.248C175.196 26.896 174.076 26.424 173.036 25.832C171.996 25.24 171.156 24.488 170.516 23.576C169.876 22.648 169.556 21.528 169.556 20.216C169.556 18.408 170.1 16.896 171.188 15.68C172.276 14.464 173.716 13.552 175.508 12.944C177.316 12.32 179.3 12.008 181.46 12.008C183.492 12.008 185.404 12.352 187.196 13.04C188.988 13.728 190.436 14.712 191.54 15.992C192.66 17.272 193.22 18.792 193.22 20.552V20.84H184.82V20.576C184.82 19.76 184.452 19.176 183.716 18.824C182.98 18.456 182.212 18.272 181.412 18.272C180.948 18.272 180.444 18.328 179.9 18.44C179.356 18.536 178.892 18.712 178.508 18.968C178.124 19.224 177.932 19.584 177.932 20.048C177.932 20.688 178.42 21.168 179.396 21.488C180.372 21.808 181.62 22.088 183.14 22.328C184.132 22.488 185.22 22.72 186.404 23.024C187.604 23.312 188.748 23.744 189.836 24.32C190.94 24.88 191.836 25.632 192.524 26.576C193.228 27.52 193.58 28.72 193.58 30.176C193.58 31.712 193.22 33.016 192.5 34.088C191.796 35.16 190.852 36.032 189.668 36.704C188.484 37.36 187.164 37.84 185.708 38.144C184.268 38.448 182.82 38.6 181.364 38.6ZM197.68 38V0.487998H206.224V16.136C207.152 14.84 208.352 13.832 209.824 13.112C211.312 12.376 212.992 12.008 214.864 12.008C218 12.008 220.312 12.928 221.8 14.768C223.304 16.592 224.056 19.136 224.056 22.4V38H215.512V24.872C215.512 23.08 215.216 21.688 214.624 20.696C214.032 19.688 212.872 19.184 211.144 19.184C209.448 19.184 208.2 19.688 207.4 20.696C206.616 21.688 206.224 23.04 206.224 24.752V38H197.68ZM242.117 38.576C239.301 38.576 236.821 38.016 234.677 36.896C232.549 35.76 230.877 34.192 229.661 32.192C228.461 30.192 227.861 27.888 227.861 25.28C227.861 22.656 228.461 20.352 229.661 18.368C230.877 16.368 232.549 14.808 234.677 13.688C236.821 12.568 239.301 12.008 242.117 12.008C244.933 12.008 247.405 12.568 249.533 13.688C251.677 14.808 253.349 16.368 254.549 18.368C255.765 20.352 256.373 22.656 256.373 25.28C256.373 27.888 255.765 30.192 254.549 32.192C253.349 34.192 251.677 35.76 249.533 36.896C247.405 38.016 244.933 38.576 242.117 38.576ZM242.117 31.976C243.829 31.976 245.181 31.368 246.173 30.152C247.181 28.936 247.685 27.312 247.685 25.28C247.685 23.248 247.181 21.632 246.173 20.432C245.181 19.232 243.829 18.632 242.117 18.632C240.405 18.632 239.045 19.232 238.037 20.432C237.045 21.632 236.549 23.248 236.549 25.28C236.549 27.312 237.045 28.936 238.037 30.152C239.045 31.368 240.405 31.976 242.117 31.976ZM260.445 48.488V12.512H269.013V15.344C270.005 14.304 271.157 13.488 272.469 12.896C273.797 12.304 275.213 12.008 276.717 12.008C278.765 12.008 280.701 12.52 282.525 13.544C284.349 14.552 285.821 16.032 286.941 17.984C288.077 19.92 288.645 22.296 288.645 25.112C288.645 28.072 288.093 30.552 286.989 32.552C285.885 34.552 284.429 36.064 282.621 37.088C280.813 38.096 278.845 38.6 276.717 38.6C275.213 38.6 273.797 38.288 272.469 37.664C271.157 37.04 270.005 36.176 269.013 35.072V48.488H260.445ZM269.013 25.928C269.013 27.064 269.269 28.032 269.781 28.832C270.309 29.632 270.981 30.248 271.797 30.68C272.629 31.096 273.485 31.304 274.365 31.304C275.789 31.304 277.053 30.808 278.157 29.816C279.261 28.824 279.813 27.256 279.813 25.112C279.813 22.968 279.261 21.424 278.157 20.48C277.069 19.52 275.805 19.04 274.365 19.04C273.501 19.04 272.653 19.248 271.821 19.664C271.005 20.064 270.333 20.656 269.805 21.44C269.277 22.208 269.013 23.16 269.013 24.296V25.64V25.928Z" fill="#3AD144"/>
</svg>
